<?xml version="1.0" encoding="utf-8"?>
<!-- Generator: Adobe Illustrator 26.0.1, SVG Export Plug-In . SVG Version: 6.00 Build 0)  -->
<svg version="1.1" id="Layer_1" xmlns="http://www.w3.org/2000/svg" xmlns:xlink="http://www.w3.org/1999/xlink" x="0px" y="0px"
	 viewBox="0 0 339.8 380.9" style="enable-background:new 0 0 339.8 380.9;" xml:space="preserve">
<style type="text/css">
	.st0{fill:#FFCE2B;}
</style>
<g>
	<g>
		<g>
			<path d="M128.4,143.9c-0.9,0.5-2,0.7-2.8,0.5c-1.3-0.3-2.4-0.8-3.2-1.5c-1-1-1.7-1.9-2-3.5c-0.3-1.5-0.2-3.1,0.2-4.6
				c1.9-6.9,9.5-10.6,15.7-13c13.5-5.2,28.5-5.8,42.4-2.1c7.9,2.1,15.3,5.6,22,10.3c1.3,0.9,3.3,0.2,4.1-1.1
				c0.9-1.5,0.2-3.2-1.1-4.1c-13.5-9.6-30.4-14.3-46.9-13.4c-8.3,0.4-16.6,2.2-24.3,5.5c-7.9,3.3-16.6,8.6-18.1,17.8
				c-0.8,4.9,0.5,9.9,4.5,13c3.6,2.8,8.5,3.6,12.5,1.3C134.8,147.2,131.8,142,128.4,143.9L128.4,143.9z"/>
		</g>
	</g>
	<g>
		<g>
			<path d="M111.5,105c-1.2-4-1.6-8.2-1-12.3c0.6-3.9,2-8.5,4.5-11.5c0.1-0.2,0.6-0.6,0.6-0.6c0.6-0.5,0.3-0.2,0.2-0.2
				c0.6-0.5,0.4,0,0.2,0c-0.5-0.1,0.1,0.1,0,0c0.3,0.3,0.6,0.6,0.8,0.9c1.2,1.7,2,3.7,3.1,5.4c2.3,3.8,5.1,7.4,8.1,10.7
				c3.5,3.7,7.4,7,11.6,9.8c1.3,0.9,3.3,0.3,4.1-1.1c0.9-1.5,0.3-3.2-1.1-4.1c-7.9-5.3-14.5-12.5-19.1-20.8
				c-1.2-2.1-2.2-4.3-4.2-5.7c-2.4-1.7-5.5-1.2-7.7,0.6c-1.9,1.6-3.1,3.9-4.1,6.1c-1.1,2.3-1.9,4.7-2.5,7.2
				c-1.2,5.7-1.1,11.7,0.7,17.3C106.9,110.2,112.7,108.7,111.5,105L111.5,105z"/>
		</g>
	</g>
	<g>
		<g>
			<path d="M144.3,104.7c6.3-9.8,16.4-16.9,27.6-19.8c11.3-2.9,23.4-1,33.5,4.9c5.7,3.3,10.7,7.7,14.4,13.1c0.9,1.3,2.6,1.9,4.1,1.1
				c1.3-0.8,2-2.8,1.1-4.1c-7.6-10.9-19.4-18.7-32.5-21.3c-13-2.6-26.6,0.1-37.8,7.3c-6.3,4.1-11.6,9.4-15.7,15.7
				c-0.9,1.4-0.3,3.3,1.1,4.1C141.7,106.7,143.5,106.1,144.3,104.7L144.3,104.7z"/>
		</g>
	</g>
	<g>
		<g>
			<path d="M272,150.9c10.8-16.8,11-39.4,1.4-56.8c-5-9-13.2-18.1-24-19.4c-5.3-0.6-11,1-14.7,5c-3.8,4.1-5.3,9.9-5,15.4
				c0.3,7.2,2.7,14.4,4.5,21.4c1.8,7.1,3.6,14.2,5.4,21.3c0.9,3.7,6.7,2.2,5.8-1.6c-1.5-5.9-3-11.8-4.5-17.7
				c-1.4-5.7-3-11.4-4.3-17.1c-1-4.7-1.6-9.9,0.4-14.4c1.8-4,5.4-6.2,9.5-6.4c9.1-0.4,16.4,7.7,20.8,14.9c4.5,7.4,6.8,16,7,24.6
				c0.2,9.8-2.2,19.4-7.5,27.7c-0.9,1.4-0.3,3.3,1.1,4.1C269.3,152.8,271.1,152.2,272,150.9L272,150.9z"/>
		</g>
	</g>
	<g>
		<g>
			<path d="M280.5,108.9c6.8-0.2,13.4,4.6,15,11.3c0.7,2.9,0.2,6.4-1,9.1c-1.5,3.3-3.7,5.7-6.9,7.3c-1.4,0.7-1.9,2.8-1.1,4.1
				c0.9,1.5,2.7,1.8,4.1,1.1c6.5-3.3,10.6-10.1,11.1-17.2c0.6-7.4-3.4-14.3-9.5-18.3c-3.5-2.3-7.6-3.5-11.8-3.4
				C276.7,103,276.6,109,280.5,108.9L280.5,108.9z"/>
		</g>
	</g>
	<g>
		<g>
			<path d="M277,144.3c14.5,0.8,28.7,7.4,39.3,17.5c5.4,5.2,9.8,11,13.1,17.7c1.6,3.2,2.9,6.5,3.8,10.1c0.4,1.7,0.6,2.8,0.6,4.7
				c0,0.9-0.1,1-0.4,2c0,0.1-0.2,0.5,0,0.1c-0.1,0.1-0.1,0.3-0.2,0.4c-0.1,0.2-0.2,0.3-0.3,0.5c-0.2,0.2,0.2-0.1-0.2,0.2
				c-0.1,0.1-0.3,0.3-0.4,0.4c0.3-0.2-0.2,0.1-0.3,0.2c-0.3,0.1-0.7,0.3-0.9,0.3c-1,0.2-2,0-3-0.3c-2.4-0.7-4.7-1.9-7-2.9
				c-5.4-2.5-10.8-4.9-16.3-7.4c-1.5-0.7-3.2-0.4-4.1,1.1c-0.8,1.3-0.4,3.4,1.1,4.1c5.2,2.4,10.4,4.7,15.6,7.1
				c4.6,2.1,9.7,5.2,15,4.1c4.8-1,7.2-5.5,7.4-10c0.2-4.1-1.2-8.1-2.6-11.9c-6-15.7-18-28.9-33-36.6c-8.4-4.4-17.7-7-27.2-7.5
				c-1.6-0.1-3,1.4-3,3C274,143,275.4,144.2,277,144.3L277,144.3z"/>
		</g>
	</g>
	<g>
		<g>
			<path d="M96.8,111c-7.2-3.5-15.5-3.5-22.9-0.7c-7.8,2.9-14,8.3-18.8,15c-4.8,6.7-8.3,14.6-10.9,22.4c-2.6,8-3.6,17.4,1.2,24.9
				c2.4,3.8,6.1,6.7,10.5,7.6c4.5,1,9,0,12.5-2.9c1.2-1,1.1-3.2,0-4.2c-1.2-1.2-3-1-4.2,0c-1.9,1.6-4.7,1.9-7,1.3
				c-2.8-0.7-5-2.3-6.5-4.8c-3.8-6-2.8-13.3-0.7-19.8c4.1-12.8,11.1-26.9,23.8-32.9c6.3-3,13.8-3.7,20.1-0.6
				c1.5,0.7,3.2,0.4,4.1-1.1C98.6,113.8,98.2,111.7,96.8,111L96.8,111z"/>
		</g>
	</g>
	<g>
		<g>
			<path d="M60.5,180.3c-5.7,8.7-9.4,19-10.3,29.4c-0.4,4.6,0.1,9.8,2.8,13.7c2.9,4.3,7.6,6.6,12.7,7.1c6,0.6,11.9-1.8,17.2-4.5
				c1.4-0.7,1.9-2.8,1.1-4.1c-0.9-1.5-2.7-1.8-4.1-1.1c-3.9,1.9-8.1,3.7-12.4,3.7c-3.4,0-7.1-1.1-9.2-4c-2.2-3.1-2.4-7-2.1-10.7
				c0.3-4.3,1.4-8.6,2.7-12.7c1.6-4.9,3.9-9.5,6.7-13.8c0.9-1.4,0.3-3.3-1.1-4.1C63.2,178.4,61.4,179,60.5,180.3L60.5,180.3z"/>
		</g>
	</g>
	<g>
		<g>
			<path d="M102.1,172.4c4.2-4.1,11.1-3.9,16-0.8c5.8,3.7,8.7,10.4,9.8,17c0.8,4.6,0.7,9.4,0.6,14.1c2-0.3,3.9-0.5,5.9-0.8
				c-3.6-12.6-8.6-24.8-14.9-36.3c-1.7,1-3.5,2-5.2,3c6.7,11,12.4,23.1,13.3,36.2c0.1,1.6,1.3,3,3,3c1.8,0,2.8-1.4,3-3
				c1.1-9.4,0.9-19.8-4.5-28c-4.9-7.5-13.2-12.2-22.2-10.6c-5.4,1-10.1,4-14.3,7.4c-1.3,1-1.1,3.2,0,4.2c1.3,1.3,3,1,4.2,0
				c3-2.4,6.4-4.5,10.1-5.5c3.3-0.9,6.7-0.6,9.6,0.8c6.6,3.2,10.2,10,11.3,17.1c0.8,4.8,0.4,9.7-0.1,14.5c2,0,4,0,6,0
				c-0.9-14.1-6.8-27.2-14.1-39.2c-2-3.3-7-0.4-5.2,3c6,11.1,10.8,22.8,14.3,34.9c0.9,3.3,5.8,2.6,5.9-0.8c0.3-9.2-0.1-18.8-4.7-27
				c-4-7.1-11.1-12.4-19.5-12.4c-4.6,0-9.1,1.7-12.3,4.9C95.1,170.8,99.3,175.1,102.1,172.4L102.1,172.4z"/>
		</g>
	</g>
	<g>
		<g>
			<path d="M135.5,191.5c14,0.1,27.9-5.6,38-15.2c2.9-2.8,5.5-5.9,7.7-9.2c0.9-1.4,0.3-3.3-1.1-4.1c-1.5-0.9-3.2-0.3-4.1,1.1
				c-6.9,10.4-18,17.7-30.1,20.4c-3.5,0.8-6.8,1.1-10.4,1.1C131.6,185.5,131.6,191.5,135.5,191.5L135.5,191.5z"/>
		</g>
	</g>
	<g>
		<g>
			<path d="M123.7,182.4c-11.6,0.5-22.7,5.1-31.5,12.6c-8.9,7.6-14.8,18.5-16.7,30c-1.1,6.7-0.9,13.5,0.6,20.1
				c0.4,1.6,2.2,2.5,3.7,2.1c1.6-0.4,2.5-2.1,2.1-3.7c-2.4-10.2-1-21.1,3.6-30.5c4.7-9.3,12.4-16.5,21.9-20.8
				c5.1-2.3,10.7-3.6,16.2-3.9c1.6-0.1,3-1.3,3-3C126.7,183.9,125.3,182.3,123.7,182.4L123.7,182.4z"/>
		</g>
	</g>
	<g>
		<g>
			<path d="M87.9,220c-0.2-0.8-0.2-2.3-0.1-3.4c0.1-0.8,0.5-2.5,1-3.6c0.9-2.1,2.5-4.2,4.4-5.8c3.8-3.3,9.3-4.3,14.3-3.3
				c12,2.5,18.8,13.6,21.3,24.9c1.5,6.9,1.5,14,1.2,21c-0.3,6.9-0.5,13.9-2.5,20.6c-1.6,5.2-4.5,10.5-9.2,13.5
				c-4.5,3-9.7,3.3-14.8,1.8C90,281.7,84.5,267.5,82,255c-0.3-1.6-2.2-2.5-3.7-2.1c-1.7,0.5-2.4,2.1-2.1,3.7
				c2.6,13.2,8.5,27.5,21.6,33.4c6,2.7,13,3.6,19.3,1.1c6.3-2.5,11.1-7.7,13.9-13.8c3.3-7.1,4.1-15,4.6-22.8
				c0.5-8.2,0.7-16.3-0.6-24.4c-2.2-13.6-10-27.3-23.9-31.4c-6.4-1.9-13.7-1.5-19.4,2.2c-5.5,3.5-9.3,9.4-9.9,15.9
				c-0.1,1.6,0,3.2,0.3,4.8c0.3,1.6,2.2,2.5,3.7,2.1C87.4,223.2,88.2,221.6,87.9,220L87.9,220z"/>
		</g>
	</g>
	<g>
		<g>
			<path d="M114.5,308.3c-2.8,2.3-3.4,6.5-2.1,9.8c1.3,3.3,4,5.9,6.9,7.8c5.7,3.8,12.9,4.9,19.5,3.3c1.6-0.4,2.5-2.2,2.1-3.7
				c-0.4-1.6-2.1-2.5-3.7-2.1c-4.5,1.1-9.5,0.4-13.7-2c-1.9-1.1-3.9-2.6-5-4.4c-0.3-0.5-0.5-0.9-0.6-1.4c0-0.1-0.2-0.7-0.1-0.3
				c0-0.3,0-0.7,0-1c0-0.1,0-0.2,0-0.3c0,0.2,0,0.2,0,0c0-0.1,0.2-0.7,0.1-0.3c0.3-0.6,0.3-0.6,0.9-1.1c1.2-1,1.1-3.2,0-4.2
				C117.5,307,115.7,307.2,114.5,308.3L114.5,308.3z"/>
		</g>
	</g>
	<g>
		<g>
			<path d="M73.4,240.8c-7.4,12.4-11.5,26.8-11.7,41.3c-0.2,13.9,3.3,27.6,9.9,39.8c3.7,6.8,8.4,13.2,13.8,18.7
				c2.7,2.8,7-1.5,4.2-4.2c-9-9.1-15.6-20.4-19.1-32.7c-3.6-12.7-3.8-26.3-0.6-39.1c1.8-7.3,4.7-14.2,8.6-20.7
				C80.5,240.5,75.3,237.5,73.4,240.8L73.4,240.8z"/>
		</g>
	</g>
	<g>
		<g>
			<path d="M87.6,314.7c8.8,20.6,28.2,36.2,49.9,41.4c6.2,1.5,12.6,2.1,19,1.9c1.6-0.1,3-1.3,3-3c0-1.6-1.4-3.1-3-3
				c-20.9,0.9-41.5-8.9-54.7-25.2c-3.6-4.4-6.7-9.7-8.9-15c-0.6-1.5-2.8-1.8-4.1-1.1C87.1,311.5,86.9,313.2,87.6,314.7L87.6,314.7z"
				/>
		</g>
	</g>
	<g>
		<g>
			<path d="M131.2,226.6c-1.8-5.5-8.9-6.1-12.9-2.5c-2,1.8-3.2,4.4-4,7c-0.9,2.9-1.5,5.9-2,8.8c-0.9,6.2-0.9,12.4,0.1,18.7
				c0.8,5.2,2,11.6,6.3,15.2c4.6,3.8,12.1,3.1,14.4-2.8c0.6-1.5-0.7-3.3-2.1-3.7c-1.7-0.5-3.1,0.6-3.7,2.1c0.1-0.2,0,0-0.1,0.1
				c0,0.1-0.4,0.4,0,0.1c-0.1,0.1-0.2,0.2-0.4,0.2c-0.1,0-0.6,0.3-0.3,0.2c0.3-0.1-0.3,0.1-0.3,0.1c-0.1,0-0.3,0.1-0.4,0.1
				c-0.8,0.2,0.2,0-0.2,0c-1,0-0.8,0.1-1.7-0.2c-0.6-0.2-0.3-0.1-0.1,0c-0.2-0.1-0.4-0.2-0.5-0.3c-0.3-0.2-0.5-0.4-0.8-0.6
				c-2.7-2.6-3.4-7.3-4-10.9c-0.8-4.6-0.9-9.3-0.5-14c0.4-4.3,1.1-8.9,2.7-12.9c0.3-0.7,0.9-1.8,1.3-2.3c0.3-0.4,0.6-0.6,0.9-0.8
				c0.1-0.1,0.2-0.2,0.4-0.2c0.3-0.1-0.3,0,0.2-0.1c0.2,0,0.4-0.1,0.6-0.1c-0.4,0.1,0,0,0.2,0c0.1,0,0.3,0,0.4,0
				c-0.6-0.1,0.3,0.1,0.3,0.1c-0.6-0.2,0.6,0.4,0.1,0c0.1,0.1,0.3,0.2,0.4,0.4c-0.3-0.4,0.1,0.4-0.1-0.1c0.5,1.5,2.1,2.5,3.7,2.1
				C130.6,229.9,131.7,228.1,131.2,226.6L131.2,226.6z"/>
		</g>
	</g>
	<g>
		<g>
			<path d="M133.7,196.2c12.1,14.9,32.5,21.3,51,16c5.3-1.5,10.4-3.9,14.9-7.2c1.3-0.9,1.9-2.6,1.1-4.1c-0.8-1.3-2.8-2-4.1-1.1
				c-7.2,5.1-15.8,8.1-24.6,8.2c-8.4,0.1-16.6-2.3-23.6-6.8c-3.9-2.5-7.4-5.7-10.4-9.3c-1-1.3-3.2-1.1-4.2,0
				C132.5,193.2,132.7,194.9,133.7,196.2L133.7,196.2z"/>
		</g>
	</g>
	<g>
		<g>
			<path d="M185.2,219.3c9.7,6.5,22,1.9,30.4-4.4c8.4-6.2,16.8-16,28-16.2c2.8,0,5.1,1,7.8,1.7c2.8,0.8,6.2,0.7,8.5-1.4
				c2.2-2.1,2.4-5.4,0.9-8c-1.6-2.7-4.4-3.9-7.4-4.1c-2.9-0.1-5.9,0.7-8.6,1.6c-2.8,0.9-5.5,2.1-8.2,3.4c-5,2.5-9.7,5.6-14.4,8.6
				c-10.2,6.6-22.5,14-35.2,10.9c0.2,1.8,0.5,3.7,0.7,5.5c14.1-8.7,29.5-15.2,45.5-19.4c3.7-1,2.2-6.8-1.6-5.8
				c-16.5,4.3-32.4,11.1-47,20c-2.1,1.3-1.9,4.8,0.7,5.5c11.1,2.8,22.4-1.2,32-6.7c9.1-5.1,17.4-12,27.3-15.6
				c2.3-0.8,4.8-1.7,7.2-1.9c0.9-0.1,1.9-0.1,2.7,0.2c-0.1,0,0.7,0.5,0.5,0.3c-0.2-0.2,0.4,0.4,0.2,0.1c0.3,0.5,0.4,0.5,0.5,1.1
				c0,0.1-0.1-0.4,0-0.3c0.3,0.2-0.3,0.5,0,0.2c-0.1,0.1-0.4,0.2-0.3,0.2c-0.9,0.2-1.6,0.1-2.7-0.2c-2.7-0.8-5.1-1.7-7.9-1.9
				c-11.3-0.6-20.4,7.2-28.5,13.9c-7.5,6.2-18.7,13.7-28.1,7.4c-1.3-0.9-3.3-0.3-4.1,1.1C183.3,216.7,183.9,218.4,185.2,219.3
				L185.2,219.3z"/>
		</g>
	</g>
	<g>
		<g>
			<path d="M232.8,166.9c-15.7,12.3-25,32.3-24.2,52.3c0.4,10.4,3.4,20.7,8.6,29.7c5.1,8.8,12.4,16.9,22.1,20.4
				c9.7,3.6,21.9,0.9,27.6-8.2c2.1-3.3-3.1-6.3-5.2-3c-4,6.2-12.5,8-19.4,5.9c-8.4-2.5-14.8-9.6-19.3-16.9
				c-9.6-15.7-11.2-35.5-4.1-52.5c3.9-9.2,10.2-17.3,18-23.5c1.3-1,1-3.2,0-4.2C235.7,165.6,234,165.9,232.8,166.9L232.8,166.9z"/>
		</g>
	</g>
	<g>
		<g>
			<path d="M251.9,241c3.4,5.6,8.6,9.7,14.7,12.1c2.8,1.1,5.2-3.1,2.9-5c-5-4.2-10-8.4-15-12.6c-1.2,1.6-2.4,3.1-3.6,4.7
				c6.6,3.9,13.9,6.5,21.5,7.5c1.6,0.2,3.2-0.4,3.7-2.1c0.4-1.4-0.5-3.5-2.1-3.7c-7.2-1-13.9-3.3-20.1-6.9c-1.3-0.8-3-0.4-3.9,0.8
				c-0.8,1.1-0.9,3,0.2,3.9c5,4.2,10,8.4,15,12.6c1-1.7,1.9-3.3,2.9-5c-4.4-1.7-8.5-5.2-11.1-9.3c-0.8-1.4-2.7-1.9-4.1-1.1
				C251.6,237.7,251.1,239.6,251.9,241L251.9,241z"/>
		</g>
	</g>
	<g>
		<g>
			<path d="M174.2,240.3c10.9-7.7,25.7-6.3,36.3,1.2c11.2,7.9,17.3,21.3,19.1,34.6c1.2,8.9,0.7,18-0.7,26.8
				c-0.3,1.6,0.4,3.2,2.1,3.7c1.7,0.5,3.2-0.6,3.7-2.1c5.1-14.7,3.7-31.3-3.6-44.9c-1.7,1-3.5,2-5.2,3c7.4,9.7,11.7,21.5,12.1,33.7
				c2-0.3,3.9-0.5,5.9-0.8c-2.5-11.7-5-23.5-7.5-35.2c-0.3-1.6-2.2-2.5-3.7-2.1c-1.7,0.5-2.3,2.1-2.1,3.7c1.1,7.3,2.1,14.6,3.2,21.9
				c0.2,1.3,1.7,2.2,2.9,2.2c1.3,0,2.5-0.9,2.9-2.2c2.8-10.4,0.3-21.5-6.3-29.8c-0.9-1.2-2.9-1.1-3.9-0.2c-1.2,0.9-1.5,2.5-0.8,3.9
				c1.8,3.3,3.6,6.6,5.5,9.9c0.8,1.4,2.7,1.9,4.1,1.1c1.5-0.9,1.8-2.7,1.1-4.1c-7-13.3-18.1-24.5-31.4-31.5
				c-1.4-0.8-3.3-0.4-4.1,1.1c-0.9,1.5-0.2,3.1,1.1,4.1c5.6,4.2,11.1,8.5,16.7,12.7c2.4,1.9,5.6-1.7,4.1-4.1
				c-7.3-11.4-20.2-18.5-33.6-19.3c-3.8-0.2-7.7,0.2-11.4,1.1c-3.3,0.8-2.6,5.9,0.8,5.9c8-0.1,15.9-0.2,23.9-0.3c3.9,0,3.8-5.8,0-6
				c-9.1-0.5-18.3-1-27.4-1.5c0.3,2,0.5,3.9,0.8,5.9c12.8-1.9,26.7,2.8,36.3,11.7c2.8,2.6,5.2,5.5,7.2,8.7c2,3.3,7.2,0.3,5.2-3
				c-8.1-13.1-22.2-21.6-37.4-23.5c-4.3-0.5-8.6-0.4-12.9,0.2c-1.5,0.2-2.3,2-2.1,3.3c0.2,1.5,1.4,2.5,2.9,2.6
				c9.1,0.5,18.3,1,27.4,1.5c0-2,0-4,0-6c-8,0.1-15.9,0.2-23.9,0.3c0.3,2,0.5,3.9,0.8,5.9c11-2.6,23.3,0.6,31.9,8.1
				c2.5,2.2,4.6,4.6,6.4,7.3c1.4-1.4,2.7-2.7,4.1-4.1c-5.6-4.2-11.1-8.5-16.7-12.7c-1,1.7-2,3.5-3,5.2c12.5,6.6,22.7,16.8,29.3,29.3
				c1.7-1,3.5-2,5.2-3c-1.8-3.3-3.6-6.6-5.5-9.9c-1.6,1.2-3.1,2.4-4.7,3.6c5.3,6.6,7,15.8,4.8,23.9c1.9,0,3.9,0,5.8,0
				c-1.1-7.3-2.1-14.6-3.2-21.9c-1.9,0.5-3.9,1.1-5.8,1.6c2.5,11.7,5,23.5,7.5,35.2c0.7,3.3,6,2.6,5.9-0.8
				c-0.5-13.2-4.9-26.2-12.9-36.8c-1-1.3-2.6-2-4.1-1.1c-1.4,0.8-1.8,2.7-1.1,4.1c6.6,12.3,7.6,27.1,3,40.3c1.9,0.5,3.9,1.1,5.8,1.6
				c2.6-16.7,2.4-34.4-5.4-49.8c-3.3-6.4-7.9-12.3-13.6-16.8c-6.1-4.7-13.1-7.7-20.8-8.5c-8.2-0.9-17,0.9-23.8,5.7
				c-1.3,0.9-1.9,2.6-1.1,4.1C170.8,240.5,172.8,241.2,174.2,240.3L174.2,240.3z"/>
		</g>
	</g>
	<g>
		<g>
			<path d="M161.2,306.3c4.6,8.8,12.3,16,21.4,20c9.6,4.3,20.5,5,30.6,2.1c5.9-1.7,11.3-4.6,16-8.4c1.3-1,1.1-3.2,0-4.2
				c-1.2-1.2-3-1-4.2,0c-7.2,5.8-16.5,8.7-25.7,8.5c-8.7-0.3-17.2-3.7-23.7-9.3c-3.8-3.3-6.9-7.1-9.2-11.6c-0.8-1.4-2.8-1.9-4.1-1.1
				C160.8,303,160.4,304.8,161.2,306.3L161.2,306.3z"/>
		</g>
	</g>
	<g>
		<g>
			<path d="M250.1,278c2.5,7,9.4,12.1,17,11.8c1.5-0.1,2.7-1.1,2.9-2.6c0.2-1.4-0.7-2.9-2.1-3.3c-1.8-0.5-3.7-1-5.5-1.4
				c-1.5-0.4-3.3,0.5-3.7,2.1c-0.4,1.6,0.5,3.3,2.1,3.7c1.8,0.5,3.7,1,5.5,1.4c0.3-2,0.5-3.9,0.8-5.9c-0.4,0-0.7,0-1.1,0
				c-0.2,0-0.3,0-0.5,0c-0.1,0-0.2,0-0.3,0c-0.2,0-0.1,0,0.3,0c-0.1,0.1-1.8-0.4-2-0.4c-0.4-0.1-0.7-0.2-1.1-0.4
				c-0.4-0.2-0.2-0.1,0.1,0c-0.2-0.1-0.4-0.2-0.6-0.3c-0.6-0.3-1.3-0.7-1.8-1.1c-0.1-0.1-0.3-0.2-0.4-0.3c-0.5-0.3,0.3,0.3,0,0
				c-0.3-0.2-0.6-0.5-0.8-0.7c-0.5-0.5-1-1-1.5-1.6c-0.2-0.3,0.4,0.5,0,0c-0.1-0.2-0.2-0.3-0.3-0.5c-0.2-0.3-0.4-0.6-0.5-0.9
				c-0.2-0.3-0.3-0.6-0.5-0.9c-0.3-0.6,0.2,0.6,0,0c-0.1-0.2-0.1-0.4-0.2-0.6c-0.5-1.5-2.1-2.6-3.7-2.1
				C250.8,274.8,249.6,276.4,250.1,278L250.1,278z"/>
		</g>
	</g>
	<g>
		<g>
			<path d="M316,204.3c9,6.8,15.1,17.8,16.2,28.9c1.2,11.1-2.4,22.3-9.6,30.8c-4.2,4.9-9.2,8.7-15.1,11.4c-1.5,0.7-1.8,2.8-1.1,4.1
				c0.9,1.5,2.6,1.7,4.1,1.1c11.6-5.2,20.6-15.4,25-27.2c4.6-12.3,3.4-26-2.5-37.6c-3.3-6.6-8.2-12.2-14.1-16.7
				c-1.3-1-3.4-0.2-4.1,1.1C314.1,201.7,314.7,203.3,316,204.3L316,204.3z"/>
		</g>
	</g>
	<g>
		<g>
			<path d="M314.3,280c-2.5,7.3-7.7,14.1-14.2,18.3c-1.4,0.9-1.9,2.7-1.1,4.1c0.8,1.3,2.7,2,4.1,1.1c8-5.2,13.9-12.9,17-21.9
				c0.5-1.5-0.6-3.3-2.1-3.7C316.3,277.5,314.8,278.5,314.3,280L314.3,280z"/>
		</g>
	</g>
	<g>
		<g>
			<path d="M263.2,304.8c4.7-9.1,11.5-17,20-22.7c3.5-2.4,8.9-5.9,13.3-3.8c0.9,0.4,1.1,0.6,1.8,1.4c0.4,0.4,0.9,1.2,1.4,2.2
				c0.7,1.4,1,3.6,1.1,5.4c0,1,0,2-0.1,3c0,0.5-0.1,1-0.1,1.5c-0.1,0.6,0.1-0.7,0,0.3c-0.1,0.4-0.1,0.7-0.2,1.1
				c-0.4,2.5-1,5-1.8,7.5c-1.5,4.9-3.5,9.7-6,14.1c-5.1,8.9-12.1,16.6-20.7,22.3c-9.8,6.6-21.3,10.5-33.1,11.3c-1.6,0.1-3,1.3-3,3
				c0,1.5,1.4,3.1,3,3c23.7-1.5,45.6-14.5,57.9-34.8c3-4.9,5.4-10.3,7.2-15.8c1.6-5.1,3-10.6,2.9-15.9c-0.1-4.7-1.2-9.9-4.9-13.1
				c-5.1-4.4-11.7-3.3-17.3-0.5c-5.7,2.9-10.9,7.3-15.4,11.9c-4.5,4.7-8.3,9.9-11.2,15.7c-0.7,1.4-0.4,3.3,1.1,4.1
				C260.5,306.7,262.5,306.3,263.2,304.8L263.2,304.8z"/>
		</g>
	</g>
	<g>
		<g>
			<path d="M134.4,373.8c17.9,7.4,38,9,56.9,4.9c17.1-3.8,32.9-12.6,45.3-24.7c6.8-6.7,12.7-14.5,17.2-22.9c1.8-3.4-3.4-6.4-5.2-3
				c-7.6,14.2-19,26.1-32.7,34.4c-15,9.1-32.5,13.3-50.1,12.4c-10.3-0.5-20.4-2.9-29.9-6.8c-1.5-0.6-3.3,0.7-3.7,2.1
				C131.8,371.9,132.9,373.2,134.4,373.8L134.4,373.8z"/>
		</g>
	</g>
	<g>
		<g>
			<path d="M253.6,331c10.9-9.9,21.8-19.8,32.7-29.6c1.2-1.1,1.1-3.1,0-4.2c-1.2-1.2-3-1.1-4.2,0c-10.9,9.9-21.8,19.8-32.7,29.6
				c-1.2,1.1-1.1,3.1,0,4.2C250.6,332.2,252.4,332.1,253.6,331L253.6,331z"/>
		</g>
	</g>
	<g>
		<g>
			<path d="M267.4,321.2c-0.2,3.1-0.3,6.1-0.5,9.2c-0.1,1.6,1.4,3.1,3,3c1.7-0.1,2.9-1.3,3-3c0.2-3.1,0.3-6.1,0.5-9.2
				c0.1-1.6-1.4-3.1-3-3C268.7,318.3,267.5,319.5,267.4,321.2L267.4,321.2z"/>
		</g>
	</g>
	<g>
		<g>
			<path d="M301,317.1c2.1-0.2,4.3-0.5,6.4,0c1.3,0.3,2.6,0.9,3.3,2.1c1.7,3.2-1.7,6.5-3.9,8.4c-6,5.2-13.3,8.8-20.9,10.9
				c-4.4,1.2-8.9,1.8-13.5,1.9c-3.9,0-3.9,6,0,6c9.8-0.1,19.4-2.6,28-7.2c4.2-2.3,8.4-5,11.8-8.4c3.8-3.6,6.3-9.2,3.8-14.3
				c-2.8-5.6-9.6-5.9-15-5.4c-1.6,0.1-3,1.3-3,3C298,315.7,299.3,317.3,301,317.1L301,317.1z"/>
		</g>
	</g>
	<g>
		<g>
			<path d="M95,328.1c-5.9,2.7-10,8.6-11.3,14.8c-1.4,6.6,0.3,13.5,4.3,18.9c9,12.1,25.6,15,39.4,10.6c7.5-2.4,14.1-6.8,18.5-13.4
				c0.9-1.3,0.3-3.3-1.1-4.1c-1.5-0.9-3.2-0.3-4.1,1.1c-6.4,9.7-19.6,13.6-30.7,12.1c-5.8-0.8-11.3-3.3-15.4-7.6
				c-3.6-3.8-5.8-8.9-5.4-14.1c0.4-5.4,3.6-10.7,8.8-13.1c1.5-0.7,1.8-2.8,1.1-4.1C98.2,327.7,96.5,327.4,95,328.1L95,328.1z"/>
		</g>
	</g>
	<g>
		<g>
			<path d="M110.5,341.1c-5.2,3-8.5,8.8-8.5,14.8c0,1.6,1.4,3.1,3,3c1.6-0.1,3-1.3,3-3c0-0.3,0-0.6,0-0.9c0-0.1,0-0.2,0-0.4
				c0-0.1,0.1-0.7,0-0.1c-0.1,0.5,0,0,0-0.1c0-0.1,0.1-0.3,0.1-0.4c0.1-0.3,0.1-0.5,0.2-0.8c0.2-0.6,0.4-1.1,0.6-1.7
				c0,0.1-0.3,0.6-0.1,0.2c0.1-0.1,0.1-0.3,0.2-0.4c0.1-0.3,0.3-0.5,0.4-0.8c0.3-0.5,0.7-1,1-1.5c-0.1,0.1-0.4,0.5-0.1,0.2
				c0.1-0.1,0.2-0.2,0.3-0.4c0.2-0.2,0.4-0.5,0.6-0.7c0.2-0.2,0.4-0.4,0.6-0.6c0.2-0.2,0.6-0.4,0.7-0.6c-0.1,0.2-0.5,0.4-0.1,0.1
				c0.1-0.1,0.2-0.2,0.4-0.3c0.3-0.2,0.5-0.3,0.8-0.5c1.4-0.8,2-2.7,1.1-4.1C113.7,340.8,111.9,340.2,110.5,341.1L110.5,341.1z"/>
		</g>
	</g>
	<g>
		<g>
			<path d="M197.3,248.5c-5.9,0.2-9.9,4.8-11.9,10c-2.1,5.3-2.9,11.4-3.2,17c-0.3,5.7,0.1,11.5,1.4,17c1.2,5.1,3.9,10.2,8.9,12.4
				c5,2.2,10.3,0.4,13.6-3.8c3.3-4.2,4.9-9.6,6.2-14.6c1.4-5.6,2.1-11.4,1.9-17.1c-0.2-5.3-1.3-10.8-4.5-15.2
				c-3.2-4.4-8.5-7.7-14.1-7.1c-5.8,0.7-10.5,4.9-11.2,10.8c-0.2,1.6,1.5,3,3,3c1.8,0,2.8-1.4,3-3c0,0.4,0.1-0.2,0.1-0.2
				c0.1-0.2,0.1-0.4,0.2-0.6c0.1-0.4,0.1-0.2,0.3-0.6c0.4-0.7,0.7-1.1,1.4-1.7c0.3-0.3,1.2-0.8,1.8-1.1c-0.2,0.1,0.6-0.2,0.7-0.3
				c0.2-0.1,0.4-0.1,0.7-0.2c0.1,0,0.7-0.1,0.4-0.1c3.3-0.5,6.5,1.5,8.6,4.2c2.4,3,3.4,7.2,3.6,11c0.3,4.6-0.1,9.3-1,13.9
				c-0.8,4.2-2,8.8-3.9,12.5c-0.8,1.6-1.6,2.9-3,4.1c-1,0.9-2.3,1.4-3.8,1.2c-3.5-0.4-5.7-4.1-6.6-7.3c-1.3-4.3-1.7-8.9-1.7-13.3
				c-0.1-5.3,0.6-10.7,2-15.8c1-3.7,3-8.7,7.2-8.9c1.6-0.1,3-1.3,3-3C200.3,250,199,248.5,197.3,248.5L197.3,248.5z"/>
		</g>
	</g>
	<g>
		<g>
			<path d="M186.3,270.7c0.2,3.7,0.4,7.4,0.6,11.1c0.6,12.8,19.7,12.9,20,0c0.1-5.1,0.3-10.3,0.4-15.4c0.3-11.3-16.8-13.6-19.6-2.7
				c-1.6,6.1-3.2,12.1-4.7,18.2c6.4,1.8,12.9,3.5,19.3,5.3c1.7-7.8,6.4-18.8,1.7-26.3c-6.3-9.9-18.6-4.7-22.7,4.1
				c-3.8,8.2-4.4,21.6,6.3,24.8c10.4,3.1,18.1-6.5,17.5-16.1c-0.3-4.8-1.3-9.3-5-12.7c-3.9-3.5-10-4.5-14.6-1.8
				c-8.9,5.2-5.9,16.8-5.1,25.1c0.8,8.6,1,19.4,11.4,21.7c11.4,2.6,18.2-8.8,17-18.7c-0.6-4.9-3.4-9.2-8.7-9.8
				c-4.5-0.5-10.1,2.2-11,7.2c-0.8,4.5-1.5,9-2.3,13.5c-0.8,4.9,0.9,9.8,5.8,11.8c4.5,1.8,10,0.3,12.5-4.1
				c7.7-13.8,10-29.1,7.2-44.6c-0.9-5.3-7.4-8.3-12.3-7c-5.6,1.5-7.9,7-7,12.3c1.8,10.1-0.3,20.4-5.2,29.2
				c6.1,2.6,12.2,5.1,18.3,7.7c0.8-4.5,1.5-9,2.3-13.5c-6.5-0.9-13.1-1.8-19.6-2.7c0.1,0.8,0.2,1.6,0.2,2.4c-0.1,2.3,0.9,1.3,2.8-3
				c1.8,0,3.5,0,5.3,0c-0.4-0.1-0.8-0.2-1.2-0.3c1.5,0.9,2.9,1.7,4.4,2.6c0.5,0.6,0.7,1.2,0.6,1.9c-0.1-1.3-0.2-2.5-0.3-3.8
				c-0.2-1.9-0.3-3.8-0.5-5.6c-0.3-2.9-1.3-8.9-0.7-10.2c-0.9,1.5-1.7,2.9-2.6,4.4c0.3-0.3,0.5-0.5,0.8-0.8
				c-1.5,0.9-2.9,1.7-4.4,2.6c0.4-0.1,0.8-0.2,1.3-0.2c-1.8,0-3.5,0-5.3,0c0.4,0.2,0.8,0.3,1.3,0.5c-1.5-0.9-2.9-1.7-4.4-2.6
				c-0.8-2.5-1.1-3-0.9-1.5c0,2.4,1.2,1.4,3.5-2.9c1.8,0,3.5,0,5.3,0c-0.4-0.1-0.7-0.1-1.1-0.2c1.5,0.9,2.9,1.7,4.4,2.6
				c0.3,0.3,1.7,4.4,1.6,1.7c0-0.7,1-1.7-0.6-0.6c-1.7,0.5-3.4,0.9-5,1.4c0.4,0,0.8-0.1,1.2-0.1c-1.7-0.5-3.4-0.9-5-1.4
				c0.3,0.2,0.6,0.3,0.8,0.5c-1.2-1.2-2.4-2.4-3.6-3.6c-1-1.8,0.4-5-0.9-1.7c-0.6,1.4-0.7,3.1-1,4.5c-0.6,2.7-1.2,5.4-1.8,8.1
				c-2.8,12.5,16,17.8,19.3,5.3c1.6-6.1,3.2-12.1,4.7-18.2c-6.5-0.9-13.1-1.8-19.6-2.7c-0.1,5.1-0.3,10.3-0.4,15.4
				c6.7,0,13.3,0,20,0c-0.2-3.7-0.4-7.4-0.6-11.1C205.7,257.8,185.7,257.8,186.3,270.7L186.3,270.7z"/>
		</g>
	</g>
	<g>
		<g>
			<path d="M191.7,251.8c-1.2,0.7-2.4,1.4-3.6,2c-2.2,1.2-3.9,3.6-4.6,6c-0.4,1.3-0.5,2.7-0.2,4c0.1,1.3,0.5,2.6,1.2,3.7
				c1.4,2.1,3.4,4,6,4.6c2.6,0.6,5.3,0.4,7.7-1c1.2-0.7,2.4-1.4,3.6-2c2.2-1.2,3.9-3.6,4.6-6c0.4-1.3,0.5-2.7,0.2-4
				c-0.1-1.3-0.5-2.6-1.2-3.7c-1.4-2.1-3.4-4-6-4.6C196.8,250.2,194.1,250.4,191.7,251.8L191.7,251.8z"/>
		</g>
	</g>
	<g>
		<g>
			<path d="M193.2,267.9c12.9,0,12.9-20,0-20C180.3,247.9,180.3,267.9,193.2,267.9L193.2,267.9z"/>
		</g>
	</g>
	<g>
		<g>
			<path d="M194.2,266.3c12.9,0,12.9-20,0-20C181.3,246.3,181.3,266.3,194.2,266.3L194.2,266.3z"/>
		</g>
	</g>
	<g>
		<g>
			<path d="M190.2,263.4c1.2,2.5,2.3,5,3.5,7.6c1,2.1,3.8,4.1,6,4.6c2.2,0.5,4.4,0.4,6.5-0.5c4.2-1.8,7.6-7.1,5.8-11.8
				c-0.3-0.8-0.6-1.6-1-2.5c-1-2.5-2.2-4.6-4.6-6c-2.1-1.3-5.3-1.8-7.7-1c-2.4,0.8-4.8,2.3-6,4.6c-1.2,2.2-2,5.2-1,7.7
				c0.3,0.8,0.6,1.6,1,2.5c6.1-2.6,12.2-5.1,18.3-7.7c-1.2-2.5-2.3-5-3.5-7.6c-1-2.1-3.8-4-6-4.6c-2.4-0.7-5.6-0.4-7.7,1
				c-2.1,1.4-4,3.4-4.6,6C188.5,258.5,189,260.9,190.2,263.4L190.2,263.4z"/>
		</g>
	</g>
	<g>
		<g>
			<path d="M185.7,258.9c-0.1,1.5-0.2,2.9-0.3,4.4c6.5-0.9,13.1-1.8,19.6-2.7c-0.2-0.4-0.3-0.8-0.4-1.2c0.1,0.9,0.2,1.8,0.4,2.7
				c0-0.4-0.1-0.8,0-1.2c-0.1,0.9-0.2,1.8-0.4,2.7c0.1-0.6,0.2-1.1,0.4-1.6c-0.3,0.8-0.7,1.6-1,2.4c0.2-0.4,0.4-0.7,0.7-1
				c-0.5,0.7-1,1.3-1.6,2c0.2-0.2,0.4-0.4,0.6-0.6c-0.7,0.5-1.3,1-2,1.6c0.3-0.3,0.7-0.5,1.1-0.6c-0.8,0.3-1.6,0.7-2.4,1
				c0.4-0.1,0.8-0.2,1.2-0.3c-0.9,0.1-1.8,0.2-2.7,0.4c0.4,0,0.8,0,1.2,0c-0.9-0.1-1.8-0.2-2.7-0.4c0.4,0.1,0.8,0.2,1.2,0.3
				c-0.8-0.3-1.6-0.7-2.4-1c0.4,0.2,0.7,0.3,1.1,0.6c-0.7-0.5-1.3-1-2-1.6c0.2,0.2,0.4,0.3,0.6,0.5c3.7,3.7,10.5,4,14.1,0
				c3.6-4,4-10.2,0-14.1c-4.8-4.7-12.4-5.8-18.2-2.3c-5.4,3.4-8.7,11-6.2,17.2c1,2.4,2.2,4.7,4.6,6c2,1.1,4.1,1.5,6.4,1.2
				c5.1-0.7,8.3-4.8,8.7-9.8c0.1-1.5,0.2-2.9,0.3-4.4c0.3-5.2-4.8-10.2-10-10C190,249.1,186.1,253.3,185.7,258.9L185.7,258.9z"/>
		</g>
	</g>
	<g>
		<g>
			<path d="M192.1,265.1c0.8,4.7,1.6,9.4,2.4,14.1c0.9,5.3,7.5,8.3,12.3,7c5.8-1.6,7.7-6.9,7-12.3c-0.7-4.9-1.4-9.9-2.1-14.8
				c-6.4,1.8-12.9,3.5-19.3,5.3c0.5,2.8,0.9,5.6,1.4,8.4c1.8,11.1,20.1,8.5,19.6-2.7c-0.1-2.1-0.2-4.3-0.3-6.4
				c-0.6-12.8-19.9-12.9-20,0c0,3.9-0.1,7.7-0.1,11.6c-0.1,12.9,19.8,12.9,20,0c0-3.6,0.1-7.3,0.1-10.9c-6.5,0.9-13.1,1.8-19.6,2.7
				c0.2,1.2,0.4,2.4,0.6,3.6c0.8,4.8,6.5,7.8,11,7.2c5.3-0.8,8-4.7,8.7-9.8c0.1-0.8,0.2-1.6,0.3-2.4c-6.7,0-13.3,0-20,0
				c-0.4,6.1-0.8,12.2-1.1,18.3c-0.3,5.4,4.8,10,10,10c5.7,0,9.7-4.6,10-10c0.5-7,0.9-14,1.4-21c-6.7,0-13.3,0-20,0
				c0.1,4.7,0.3,9.4,0.4,14.1c0.4,12.9,19.3,12.8,20,0c0.2-4.1,0.4-8.1,0.6-12.2c0.5-9.5-14.5-14.2-18.6-5c-0.7,1.5-1.3,2.9-2,4.4
				c-2.2,4.9-1.4,10.8,3.6,13.7c4.3,2.5,11.5,1.4,13.7-3.6c0.7-1.5,1.3-2.9,2-4.4c-6.2-1.7-12.4-3.4-18.6-5
				c-0.2,4.1-0.4,8.1-0.6,12.2c6.7,0,13.3,0,20,0c-0.1-4.7-0.3-9.4-0.4-14.1c-0.4-13-19.2-12.8-20,0c-0.5,7-0.9,14-1.4,21
				c6.7,0,13.3,0,20,0c0.4-6.1,0.8-12.2,1.1-18.3c0.3-5.4-4.8-10-10-10c-6,0-9.3,4.6-10,10c-0.1,0.8-0.2,1.6-0.3,2.4
				c6.5-0.9,13.1-1.8,19.6-2.7c-0.2-1.2-0.4-2.4-0.6-3.6c-0.8-4.8-6.5-7.8-11-7.2c-4.9,0.7-8.6,4.7-8.7,9.8c0,3.6-0.1,7.3-0.1,10.9
				c6.7,0,13.3,0,20,0c0-3.9,0.1-7.7,0.1-11.6c-6.7,0-13.3,0-20,0c0.1,2.1,0.2,4.3,0.3,6.4c6.5-0.9,13.1-1.8,19.6-2.7
				c-0.5-2.8-0.9-5.6-1.4-8.4c-0.9-5.3-7.5-8.3-12.3-7c-5.8,1.6-7.7,6.9-7,12.3c0.7,4.9,1.4,9.9,2.1,14.8c6.4-1.8,12.9-3.5,19.3-5.3
				c-0.8-4.7-1.6-9.4-2.4-14.1c-0.9-5.3-7.5-8.3-12.3-7C193.5,254.3,191.2,259.7,192.1,265.1L192.1,265.1z"/>
		</g>
	</g>
	<g>
		<g>
			<path d="M112.2,243.6c-0.4,6.1-0.7,12.2-1.1,18.3c-0.3,5.4,4.8,10,10,10c5.8,0,9.5-4.6,10-10c0.9-9.9,1.7-19.8,2.6-29.7
				c1-11.1-18.1-13.8-19.6-2.7c-1,7.2-2,14.3-3,21.5c-0.7,5.3,1.3,10.7,7,12.3c4.8,1.3,11.4-1.6,12.3-7c0.6-3.9,1.2-7.7,1.9-11.6
				c0.4-2.3,0.8-7.6,1.3-8.5c-1.2,1.2-2.4,2.4-3.6,3.6c-0.1,0.1-0.3,0.1-0.4,0.2c-2.6-0.3-5.1-0.7-7.7-1c0.3,0.1,0.6,0.3,1,0.4
				c-1.2-1.2-2.4-2.4-3.6-3.6c0.2,0.3,0.3,0.6,0.5,1c-0.5-1.7-0.9-3.4-1.4-5c1.3,11.2-1.3,23-5.2,33.4c-2.1,5.7,3.5,13.3,9.6,12.7
				c11-1.2,18.3-11.7,12-22c-6.7-11-24-0.9-17.3,10.1c0.2-1.9,0.3-3.9,0.5-5.8c1.5-0.9,2.9-1.7,4.4-2.6c0.1,0.1,0.2,0.2,0.3,0.2
				c3.2,4.2,6.4,8.4,9.6,12.7c2.7-7.3,4.4-14.8,5.4-22.5c0.8-6.6,2.4-16.3-1.4-22.3c-4.9-7.9-16.6-6.4-20.8,1.4
				c-1.7,3.2-1.9,6.9-2.5,10.4c-0.7,4.5-1.4,9-2.2,13.5c6.4,1.8,12.9,3.5,19.3,5.3c1-7.2,2-14.3,3-21.5c-6.5-0.9-13.1-1.8-19.6-2.7
				c-0.9,9.9-1.7,19.8-2.6,29.7c6.7,0,13.3,0,20,0c0.4-6.1,0.7-12.2,1.1-18.3C133,230.7,113,230.8,112.2,243.6L112.2,243.6z"/>
		</g>
	</g>
	<g>
		<g>
			<path d="M111.2,233.4c-0.3,5.2-0.7,10.5-1,15.7c-0.3,5.2,4.8,10.2,10,10c5.8-0.3,9.6-4.4,10-10c0.3-4.2,0.6-8.4,0.9-12.6
				c0.4-5.2-4.9-10.2-10-10c-5.8,0.3-9.6,4.4-10,10c-0.3,4.2-0.6,8.4-0.9,12.6c6.7,0,13.3,0,20,0c0.3-5.2,0.7-10.5,1-15.7
				c0.3-5.2-4.8-10.2-10-10C115.5,223.6,111.5,227.7,111.2,233.4L111.2,233.4z"/>
		</g>
	</g>
	<g>
		<g>
			<path class="st0" d="M41.8,87C30,76.2,18.2,65.4,6.4,54.6c-1.2,2.1-2.4,4.2-3.6,6.3c7.3,2.3,14.6,4.6,21.9,6.9
				c3.7,1.2,7.3,2.3,11,3.5c3,0.9,6.2,2.3,9.4,2c4.7-0.5,7.4-4.4,7.4-8.9c0-2.4-0.6-4.7-1.5-6.9c-1.2-2.9-4.5-6.7-2.6-9.8
				c-2,0.3-3.9,0.5-5.9,0.8c5.6,6.3,11.1,12.5,16.7,18.8c2.4,2.6,6.1,0.3,6.4-2.7c1.9-20.3,3.7-40.6,5.6-60.8
				c-2.5,0.3-4.9,0.7-7.4,1c2.5,9.5,5,19,7.5,28.5c2.5,9.6,6.1,19.5,6.9,29.4C79.5,78.8,66.5,92.6,50,91.2c-4.8-0.4-4.8,7.1,0,7.5
				c16.5,1.4,32.7-11,35.3-27.4c1.7-10.9-2.1-22-4.9-32.4c-3.2-12-6.3-24.1-9.5-36.1c-1.1-4.3-7-3-7.4,1C61.8,24,59.9,44.3,58,64.5
				c2.1-0.9,4.3-1.8,6.4-2.7c-5.6-6.3-11.1-12.5-16.7-18.8c-1.7-1.9-4.7-1.2-5.9,0.8c-2.4,3.8-1.9,7.8-0.2,11.8c0.9,2,2.2,3.9,2.8,6
				c1.2,3.8-0.7,4.3-4.1,3.2c-11.9-3.7-23.7-7.5-35.6-11.3c-3.5-1.1-6.4,3.8-3.6,6.3c11.8,10.8,23.6,21.6,35.4,32.4
				C40.1,95.6,45.4,90.3,41.8,87L41.8,87z"/>
		</g>
	</g>
</g>
</svg>
