<?xml version="1.0" encoding="utf-8"?>
<!-- Generator: Adobe Illustrator 26.0.1, SVG Export Plug-In . SVG Version: 6.00 Build 0)  -->
<svg version="1.1" id="Layer_1" xmlns="http://www.w3.org/2000/svg" xmlns:xlink="http://www.w3.org/1999/xlink" x="0px" y="0px"
	 viewBox="0 0 24 24" style="enable-background:new 0 0 24 24;" xml:space="preserve">
<style type="text/css">
	.st0{fill:#A3A3A3;}
</style>
<path class="st0" d="M7,0.1c-1.2,0-2.1,0.2-2.9,0.5C3.3,1,2.6,1.4,2,2S0.9,3.4,0.6,4.2C0.3,4.9,0.1,5.8,0.1,7.1S0,8.8,0,12
	s0,3.7,0.1,4.9c0.1,1.3,0.3,2.1,0.6,2.9C1,20.7,1.4,21.3,2,22c0.6,0.6,1.3,1.1,2.1,1.4S5.7,23.9,7,24c1.4,0,1.8,0,5,0s3.7,0,4.9-0.1
	c1.3-0.1,2.1-0.3,2.9-0.6c0.8-0.3,1.5-0.8,2.1-1.4s1.1-1.3,1.4-2.1c0.3-0.8,0.5-1.6,0.6-2.9S24,15.2,24,12c0-3.3,0-3.7-0.1-4.9
	c-0.1-1.3-0.3-2.1-0.6-2.9C23.1,3.3,22.6,2.6,22,2s-1.3-1.1-2.1-1.4C19.1,0.3,18.3,0.1,17,0c-1.4,0-1.8,0-5,0S8.3,0,7,0.1 M7.2,21.8
	c-1.2,0-1.8-0.2-2.2-0.4c-0.5-0.2-1-0.5-1.4-0.9s-0.7-0.9-0.9-1.4c-0.2-0.4-0.4-1.1-0.4-2.2c-0.1-1.3-0.1-1.6-0.1-4.8s0-3.6,0.1-4.8
	c0-1.2,0.2-1.8,0.4-2.2c0.2-0.6,0.5-1,0.9-1.4S4.5,3,5,2.8c0.3-0.3,1-0.5,2.1-0.6c1.3,0,1.7,0,4.9,0s3.6,0,4.9,0.1
	c1.2,0,1.8,0.2,2.2,0.4c0.6,0.2,1,0.5,1.4,0.9s0.7,0.8,0.9,1.4c0.2,0.4,0.4,1.1,0.4,2.2c0.1,1.3,0.1,1.6,0.1,4.8s0,3.6-0.1,4.8
	c-0.1,1.2-0.2,1.8-0.4,2.2c-0.2,0.6-0.5,1-0.9,1.4s-0.9,0.7-1.4,0.9c-0.4,0.2-1.1,0.4-2.2,0.4c-1.3,0.1-1.6,0.1-4.9,0.1
	S8.4,21.8,7.2,21.8 M17,5.6C17,6.4,17.6,7,18.4,7s1.4-0.6,1.4-1.4s-0.6-1.4-1.4-1.4l0,0C17.6,4.1,17,4.8,17,5.6 M5.8,12
	c0,3.4,2.8,6.2,6.2,6.1c3.4,0,6.2-2.8,6.1-6.2c0-3.4-2.8-6.1-6.3-6.1C8.6,6,5.9,8.7,5.8,12 M8,12c0-2.2,1.8-4,4-4s4,1.8,4,4
	s-1.8,4-4,4S8,14.2,8,12L8,12"/>
</svg>
