<?xml version="1.0" encoding="utf-8"?>
<!-- Generator: Adobe Illustrator 26.0.1, SVG Export Plug-In . SVG Version: 6.00 Build 0)  -->
<svg version="1.1" id="Layer_1" xmlns="http://www.w3.org/2000/svg" xmlns:xlink="http://www.w3.org/1999/xlink" x="0px" y="0px"
	 viewBox="0 0 533.3 533.4" style="enable-background:new 0 0 533.3 533.4;" xml:space="preserve">
<style type="text/css">
	.st0{fill:#A3A3A3;}
</style>
<path class="st0" d="M490.7,0h-445C40-0.3,34.2,0.6,28.8,2.5s-10.4,4.9-14.6,8.8S6.5,19.8,4.1,25C1.6,30.3,0.3,36,0,41.7v446
	c0.3,12,5.3,23.4,13.7,31.9c8.5,8.5,19.9,13.4,31.9,13.8h445c11.7-0.5,22.7-5.6,30.7-14.1s12.3-19.9,12-31.5v-446
	c0.1-5.6-1-11.1-3.1-16.3s-5.3-9.8-9.3-13.7s-8.7-6.9-14-8.9C501.8,0.7,496.2-0.2,490.7,0z M166.7,444.7H89V207h77.7V444.7z
	 M129.7,171c-5.4,0.2-10.8-0.7-15.9-2.7c-5-2-9.6-5-13.4-8.9s-6.8-8.4-8.8-13.5S88.8,135.4,89,130c-0.2-5.5,0.7-10.9,2.7-16
	s5-9.7,8.9-13.6s8.5-6.9,13.7-8.8c5.1-2,10.6-2.8,16.1-2.5c5.4-0.2,10.8,0.7,15.9,2.7c5,2,9.6,5,13.4,8.9c3.8,3.9,6.8,8.4,8.8,13.5
	s2.8,10.5,2.6,15.9c0.2,5.5-0.7,10.9-2.7,16s-5,9.7-8.9,13.6c-3.9,3.9-8.5,6.9-13.7,8.8C140.6,170.5,135.1,171.3,129.7,171z
	 M444.7,444.7h-78v-130c0-31-11-52.3-38.7-52.3c-8.6,0.1-17,2.8-23.9,7.8c-7,5-12.2,12.1-15.1,20.2c-2.2,6.1-3.1,12.5-2.7,19v135.3
	h-76.7V207h76.7v33.3c6.8-12.5,17-22.9,29.3-30c12.4-7.1,26.4-10.7,40.7-10.3c50.3,0,88.3,33.3,88.3,104.3v140.4H444.7z"/>
</svg>
